# xmcd
#
# Track frame offsets:
#	182
#	12887
#	24502
#	36162
#	47997
#	60517
#	71660
#	81822
#	92847
#	103200
#	113805
#	125317
#	137625
#	152117
#	162860
#	175865
#	188875
#	202432
#	214817
#	228062
#
# Disc length: 3219 seconds
#
# Revision: 1
# Processed by: cddbd v1.4PL0 Copyright (c) Steve Scherf et al.
# Submitted via: audiograbber 1.81.03
#
DISCID=160c9114
DTITLE=Jimmy Reed - Take Out Some Insurance
DYEAR=1994
DGENRE=Blues
TTITLE0=I Found My Baby
TTITLE1=Boogie In The Dark
TTITLE2=I'm Gonna Ruin You
TTITLE3=She Don't Want Me No More
TTITLE4=Do The Thing
TTITLE5=Odds And Ends
TTITLE6=My Bitter Seed
TTITLE7=The Moon Is Rising
TTITLE8=I Wanna Be Loved
TTITLE9=Take Out Some Insurance
TTITLE10=Come Love
TTITLE11=Tell Me You Love Me
TTITLE12=Baby What's Wrong
TTITLE13=Too Much
TTITLE14=I'll Change My Style
TTITLE15=Let's Get Together
TTITLE16=Mary, Mary
TTITLE17=When You're Doing Alright
TTITLE18=I'm Going Upside Your Head
TTITLE19=I'm The Man Down There
EXTD=Charly Masters Vol. 13
EXTT0=
EXTT1=
EXTT2=
EXTT3=
EXTT4=
EXTT5=
EXTT6=
EXTT7=
EXTT8=
EXTT9=
EXTT10=
EXTT11=
EXTT12=
EXTT13=
EXTT14=
EXTT15=
EXTT16=
EXTT17=
EXTT18=
EXTT19=
PLAYORDER=
